<?xml version="1.0" encoding="utf-8"?>
<!-- Generator: Adobe Illustrator 15.0.2, SVG Export Plug-In  -->
<!DOCTYPE svg PUBLIC "-//W3C//DTD SVG 1.1//EN" "http://www.w3.org/Graphics/SVG/1.1/DTD/svg11.dtd" [
	<!ENTITY ns_flows "http://ns.adobe.com/Flows/1.0/">
]>
<svg version="1.1"
	 xmlns="http://www.w3.org/2000/svg" xmlns:xlink="http://www.w3.org/1999/xlink" xmlns:a="http://ns.adobe.com/AdobeSVGViewerExtensions/3.0/"
	 x="0px" y="0px" width="345px" height="75px" viewBox="-2 0.00049 345 75"
	 overflow="visible" enable-background="new -2 0.00049 345 75" xml:space="preserve">
<defs>
</defs>
<path fill="#212B3F" d="M123.22412,42.64404c0,9.42871-4.36914,13.85547-11.78613,13.85547
	c-6.5542,0-11.26855-3.73633-11.26855-11.32617V16.65625c0-1.03467,0.80469-1.83984,1.83984-1.83984
	c1.03467,0,1.83984,0.80518,1.83984,1.83984v15.92578c1.32227-1.83984,4.13965-3.73682,7.81934-3.73682
	C119.08447,28.84521,123.22412,33.21436,123.22412,42.64404z M103.84912,45.17334c0,5.46191,3.16211,7.99121,7.58887,7.99121
	c5.28955,0,8.10645-3.33398,8.10645-10.52051c0-7.07227-2.87451-10.46436-8.10645-10.46436
	c-5.40479,0-7.58887,5.05957-7.58887,5.05957V45.17334z"/>
<path fill="#212B3F" d="M127.54053,42.64209c0-4.4082,1.0249-7.81104,3.07617-10.20703
	c2.05029-2.39551,4.93555-3.59424,8.65381-3.59424c2.22266,0,4.11133,0.37451,5.66406,1.12158
	c1.55225,0.74756,2.67383,1.74512,3.36426,2.99023c0.68945,1.24609,1.1582,2.40625,1.4082,3.479
	c0.24902,1.07324,0.37305,2.20459,0.37305,3.39209c0,0.95996-0.03711,1.66797-0.11426,2.12793
	c-0.11426,0.61328-0.53711,0.9209-1.26465,0.9209h-19.37842c0,8.08789,3.52637,12.13184,10.58057,12.13184
	c3.10498,0,5.80762-0.95703,8.10742-2.875c0.15332-0.11523,0.30664-0.17188,0.45996-0.17188
	c0.49805,0,0.74805,0.24902,0.74805,0.74707c0,0.19141-0.11523,0.40234-0.3457,0.63281
	c-2.26221,2.1084-5.25195,3.16211-8.96973,3.16211C131.66064,56.49951,127.54053,51.88037,127.54053,42.64209z M148.41406,39.82373
	c0-1.26367-0.13477-2.41455-0.40332-3.44971s-0.72852-2.03125-1.37988-2.99023c-0.65234-0.95752-1.60107-1.70508-2.84668-2.24268
	c-1.24609-0.53613-2.75098-0.80469-4.51367-0.80469c-3.18213,0-5.60596,0.96826-7.27393,2.90332
	c-1.66748,1.93652-2.55859,4.66846-2.67383,8.19531h19.03271C148.39355,40.66748,148.41406,40.13232,148.41406,39.82373z"/>
<path fill="#212B3F" d="M157.52734,55.95361c-0.17285,0.17188-0.37402,0.25879-0.60449,0.25879
	c-0.22949,0-0.43066-0.08691-0.60352-0.25879c-0.17285-0.17285-0.25879-0.37402-0.25879-0.60352V30.04883
	c0-0.22998,0.08594-0.43115,0.25879-0.604c0.17285-0.17236,0.37402-0.25879,0.60352-0.25879
	c0.23047,0,0.43164,0.08643,0.60449,0.25879c0.17188,0.17285,0.25781,0.37402,0.25781,0.604v4.3125
	c0.53711-1.41748,1.5625-2.69287,3.07617-3.82373c1.51465-1.13037,3.49805-1.69678,5.95117-1.69678
	c6.8623,0,10.29492,3.39307,10.29492,10.17822V55.3501c0,0.22949-0.08789,0.43066-0.25977,0.60352
	c-0.17383,0.17188-0.37305,0.25879-0.60352,0.25879c-0.23145,0-0.43164-0.08691-0.60547-0.25879
	c-0.1709-0.17285-0.25684-0.37402-0.25684-0.60352V39.01904c0-2.68311-0.63379-4.80127-1.89941-6.354
	c-1.26367-1.55225-3.50586-2.32861-6.72656-2.32861c-2.91406,0-5.1377,0.91992-6.66992,2.76025
	c-1.53418,1.83984-2.30078,4.00635-2.30078,6.49756V55.3501C157.78516,55.57959,157.69922,55.78076,157.52734,55.95361z"/>
<path fill="#212B3F" d="M187.97168,33.55957c1.15039-2.64502,4.02441-4.59961,7.99219-4.59961
	c0.97656,0,1.78125,0.80518,1.78125,1.78223c0,0.97754-0.80469,1.78271-1.78125,1.78271c-5.29004,0-7.99219,3.67969-7.99219,8.96875
	v12.87891c0,1.03418-0.80469,1.83984-1.83984,1.83984c-1.03418,0-1.83984-0.80566-1.83984-1.83984V31.0293
	c0-1.03467,0.80566-1.83936,1.83984-1.83936c1.03516,0,1.83984,0.80469,1.83984,1.83936V33.55957z"/>
<path fill="#212B3F" d="M202.03223,29.44482c0.17285-0.17236,0.37402-0.25879,0.60352-0.25879s0.43066,0.08643,0.60352,0.25879
	c0.17285,0.17285,0.25977,0.37402,0.25977,0.604v16.21533c0,2.72168,0.62207,4.8584,1.86816,6.41211
	c1.24512,1.55273,3.55469,2.32812,6.92969,2.32812c3.37207,0,5.68262-0.77539,6.92773-2.32812
	c1.24609-1.55371,1.87012-3.69043,1.87012-6.41211V30.04883c0-0.22998,0.08496-0.43115,0.25781-0.604
	c0.17285-0.17236,0.37402-0.25879,0.60449-0.25879c0.22949,0,0.43066,0.08643,0.60352,0.25879
	c0.17285,0.17285,0.25781,0.37402,0.25781,0.604v16.21533c0,3.10547-0.75684,5.58789-2.27051,7.44727
	c-1.51465,1.85938-4.26562,2.78809-8.25098,2.78809c-3.98828,0-6.73828-0.92871-8.25195-2.78809
	c-1.51562-1.85938-2.27148-4.3418-2.27148-7.44727V30.04883C201.77344,29.81885,201.86035,29.61768,202.03223,29.44482z"/>
<path fill="#212B3F" d="M240.29883,28.84082c1.30273,0,2.51953,0.19287,3.65137,0.57568
	c1.12988,0.3833,2.03125,0.84375,2.70215,1.37988c0.6709,0.5376,1.24609,1.06348,1.72559,1.58154
	c0.47852,0.51758,0.81348,0.96826,1.00684,1.35107l0.28711,0.57471V15.67334c0-0.22998,0.08691-0.43115,0.25879-0.604
	c0.17285-0.17236,0.37402-0.25879,0.60352-0.25879s0.43066,0.08643,0.60352,0.25879c0.17285,0.17285,0.25977,0.37402,0.25977,0.604
	v29.6709c0,3.60449-1.0166,6.36426-3.04785,8.28027c-2.0332,1.91699-4.71484,2.875-8.05078,2.875
	c-3.75684,0-6.66113-1.14941-8.71094-3.4502c-2.05078-2.2998-3.07715-5.76855-3.07715-10.40723
	c0-4.60107,1.02637-8.05078,3.07715-10.35059C233.6377,29.99121,236.54199,28.84082,240.29883,28.84082z M249.67188,37.06396
	c-0.07715-0.19141-0.17285-0.43994-0.28711-0.74707c-0.11523-0.30664-0.43164-0.84326-0.94922-1.61035
	c-0.51758-0.7666-1.10156-1.44678-1.75293-2.0415c-0.65332-0.59375-1.54395-1.13037-2.6748-1.60986
	c-1.13086-0.479-2.36719-0.71875-3.70898-0.71875c-6.63184,0-9.94727,4.10205-9.94727,12.30566
	c0,8.24219,3.31543,12.3623,9.94727,12.3623c2.83691,0,5.1084-0.80469,6.81445-2.41406
	c1.70508-1.61133,2.55859-4.02637,2.55859-7.24609V37.06396z"/>
<path fill="#212B3F" d="M260.62598,55.95361c-0.17285,0.17188-0.375,0.25879-0.60449,0.25879s-0.43066-0.08691-0.60352-0.25879
	c-0.17285-0.17285-0.25977-0.37402-0.25977-0.60352V15.67334c0-0.22998,0.08691-0.43115,0.25977-0.604
	c0.17285-0.17236,0.37402-0.25879,0.60352-0.25879s0.43164,0.08643,0.60449,0.25879c0.17285,0.17285,0.25781,0.37402,0.25781,0.604
	v18.68799c0.53613-1.41748,1.55371-2.69287,3.04785-3.82373c1.49512-1.13037,3.4873-1.69678,5.98047-1.69678
	c6.86133,0,10.29297,3.39307,10.29297,10.17822V55.3501c0,0.22949-0.08691,0.43066-0.25879,0.60352
	c-0.17285,0.17188-0.37402,0.25879-0.60352,0.25879c-0.23145,0-0.43262-0.08691-0.60449-0.25879
	c-0.17285-0.17285-0.25879-0.37402-0.25879-0.60352V39.01904c0-2.68311-0.63281-4.80127-1.89746-6.354
	c-1.26562-1.55225-3.50781-2.32861-6.72754-2.32861c-2.91406,0-5.1377,0.91992-6.66992,2.76025
	c-1.53418,1.83984-2.30078,4.00635-2.30078,6.49756V55.3501C260.88379,55.57959,260.79883,55.78076,260.62598,55.95361z"/>
<path fill="#212B3F" d="M296.76465,30.33643c-2.1084,0-3.73828,0.37354-4.8877,1.12158
	c-1.15039,0.74707-2.14746,1.77344-2.99023,3.07617c-0.15332,0.26855-0.38379,0.40234-0.69043,0.40234
	c-0.53711,0-0.80469-0.26758-0.80469-0.80518c0-0.15283,0.05762-0.3252,0.17285-0.51709
	c1.95508-3.18213,5.02148-4.77344,9.2002-4.77344c3.41113,0,5.94141,0.83447,7.58984,2.50146
	c1.64746,1.66797,2.47266,3.99658,2.47266,6.98633V55.3501c0,0.53613-0.26855,0.80469-0.80566,0.80469
	s-0.80469-0.26855-0.80469-0.80469v-3.39258c-1.87793,2.99023-5.04102,4.48438-9.4873,4.48438
	c-3.2207,0-5.69238-0.68945-7.41797-2.07031c-1.72559-1.37891-2.58691-3.33398-2.58691-5.86523
	c0-2.53027,0.94824-4.49316,2.8457-5.89355c1.89746-1.39844,4.49414-2.09863,7.79199-2.09863h8.85449v-2.64453
	c0-2.41553-0.7373-4.27441-2.21289-5.57812C301.52734,30.98877,299.44727,30.33643,296.76465,30.33643z M295.72949,54.94775
	c2.68262,0,4.93555-0.70996,6.75684-2.12793c1.82031-1.41797,2.73047-3.41113,2.73047-5.97949v-4.88867h-8.85449
	c-2.68457,0-4.83008,0.55664-6.44043,1.66797c-1.61035,1.1123-2.41602,2.74023-2.41602,4.88672
	c0,2.03223,0.69043,3.61426,2.07129,4.74414C290.95703,54.38232,293.00781,54.94775,295.72949,54.94775z"/>
<path fill="#212B3F" d="M314.56152,29.44482c0.17188-0.17236,0.37305-0.25879,0.60352-0.25879
	c0.22949,0,0.43164,0.08643,0.60449,0.25879c0.17188,0.17285,0.25781,0.37402,0.25781,0.604v5.63525
	c0.65137-2.03174,1.81152-3.67041,3.47852-4.9165c1.66797-1.24512,3.78613-1.86865,6.35449-1.86865
	c0.49707,0,0.74707,0.24951,0.74707,0.74707c0,0.49902-0.25,0.74805-0.74707,0.74805c-3.18262,0-5.61621,1.07324-7.30273,3.22021
	c-1.6875,2.14697-2.53027,4.86768-2.53027,8.16455V55.3501c0,0.22949-0.08594,0.43066-0.25781,0.60352
	c-0.17285,0.17188-0.375,0.25879-0.60449,0.25879c-0.23047,0-0.43164-0.08691-0.60352-0.25879
	c-0.17285-0.17285-0.25977-0.37402-0.25977-0.60352V30.04883C314.30176,29.81885,314.38867,29.61768,314.56152,29.44482z"/>
<path fill="#212B3F" d="M333.85156,29.646v-7.01514c0-0.22949,0.08691-0.43066,0.25977-0.60352
	c0.17188-0.17236,0.37305-0.25879,0.60352-0.25879c0.22949,0,0.43164,0.08643,0.60449,0.25879
	c0.17188,0.17285,0.25781,0.37402,0.25781,0.60352V29.646h5.17578c0.49707,0,0.74707,0.25,0.74707,0.74805
	c0,0.49854-0.25,0.74707-0.74707,0.74707h-5.17578v18.28613c0,1.68652,0.43066,2.98926,1.29395,3.91016
	c0.8623,0.91992,2.02148,1.37988,3.47949,1.37988c0.49707,0,0.74707,0.25,0.74707,0.74707c0,0.49805-0.25,0.74805-0.74707,0.74805
	c-2.0332,0-3.62402-0.62305-4.77344-1.86914s-1.72559-2.88477-1.72559-4.91602V31.14111h-3.56445
	c-0.49902,0-0.74805-0.24854-0.74805-0.74707c0-0.49805,0.24902-0.74805,0.74805-0.74805H333.85156z"/>
<path opacity="0" fill="#2AA02D" d="M37.17969,51.90186c-1.85645-1.25488-2.99316-3.46484-2.99316-6.73047v-7.93506
	c0,0,2.18408-5.05859,7.58887-5.05859c0.36279,0,0.71191,0.02002,1.05176,0.05322c-0.96777-0.8877-0.82617-2.75537,0.43896-3.34033
	c-0.40967-0.02979-0.82812-0.04785-1.26025-0.04785c-3.67969,0-6.49707,1.89648-7.81934,3.7373v-3.95703
	c-0.20312,0.77295-0.81592,1.42188-1.85303,1.42188c-0.99023,0-1.59668-0.59082-1.82666-1.31689v16.44336
	c0,5.06543,2.10693,8.40527,5.45215,10.07227C35.04395,54.16455,35.45508,52.08252,37.17969,51.90186z"/>
<path fill="#212B3F" d="M0,37.58984C0,16.83008,16.83105,0,37.58984,0C58.3418,0,75.17285,16.83008,75.17285,37.58984
	c0,20.75439-16.83008,37.58252-37.58301,37.58252C16.83105,75.17236,0,58.34424,0,37.58984z"/>
<path fill="#B7DD65" d="M29.75,21.96143c0.8999,0,1.53906,0.39551,1.93652,0.95703v-6.26514
	c0-1.03418-0.80518-1.83984-1.83984-1.83984c-1.03516,0-1.83984,0.80566-1.83984,1.83984v6.02295
	C28.40869,22.24756,28.98584,21.96143,29.75,21.96143z"/>
<path fill="#B7DD65" d="M47.57031,31.75879c0.59814,1.42188-0.05908,3.40527-1.97168,3.55566
	c1.15723,1.69775,1.7832,4.11084,1.7832,7.32764c0,6.9834-2.66797,10.31934-7.67334,10.50195
	c0.8418,0.86035,0.9248,2.34082,0.25098,3.32715c6.99561-0.27148,11.10205-4.69922,11.10205-13.8291
	C51.06152,37.57178,49.83838,33.99951,47.57031,31.75879z"/>
<path fill="#B7DD65" d="M39.74512,28.87451c-3.96777,0-6.8418,1.95508-7.99219,4.59961v-2.5293
	c0-1.03516-0.80469-1.83984-1.83984-1.83984c-1.03418,0-1.83984,0.80469-1.83984,1.83984v23.3418
	c0,1.03516,0.80566,1.83984,1.83984,1.83984c1.03516,0,1.83984-0.80469,1.83984-1.83984V41.40771
	c0-5.28809,2.70215-8.96777,7.99219-8.96777c0.97656,0,1.78125-0.80566,1.78125-1.78223
	C41.52637,29.68018,40.72168,28.87451,39.74512,28.87451z"/>
</svg>
