<?xml version="1.0" encoding="utf-8"?>
<!-- Generator: Adobe Illustrator 15.0.2, SVG Export Plug-In . SVG Version: 6.00 Build 0)  -->
<!DOCTYPE svg PUBLIC "-//W3C//DTD SVG 1.1//EN" "http://www.w3.org/Graphics/SVG/1.1/DTD/svg11.dtd">
<svg version="1.1" id="Layer_1" xmlns="http://www.w3.org/2000/svg" xmlns:xlink="http://www.w3.org/1999/xlink" x="0px" y="0px"
	 width="300px" height="71.7px" viewBox="350 83.65 300 71.7" enable-background="new 350 83.65 300 71.7" xml:space="preserve">
<path fill="#212B3F" d="M350.303,119.55c0-19.878,15.804-35.993,35.297-35.993c19.486,0,35.29,16.115,35.29,35.993
	c0,19.873-15.803,35.986-35.29,35.986C366.107,155.536,350.303,139.423,350.303,119.55z"/>
<path fill="#B7DD65" d="M395.256,125.984h6.122l-0.586-1.55h-6.135l-8.823-22.813c-0.099-0.318-0.421-0.587-0.833-0.587
	c-0.42,0-0.684,0.269-0.791,0.587l-13.561,34.926c-0.058,0.113-0.108,0.318-0.108,0.437c0,0.469,0.371,0.85,0.841,0.85
	c0.421,0,0.734-0.264,0.833-0.582l4.35-11.273h9.353c0.02,0.002,0.04,0.008,0.058,0.008h7.455l4.289,11.2
	c0.158,0.384,0.421,0.648,0.841,0.648c0.526,0,0.89-0.38,0.89-0.85c0-0.118-0.05-0.323-0.108-0.437L395.256,125.984z M385,103.703
	l7.902,20.728h-15.811L385,103.703z"/>
<path fill="#212B3F" d="M459.065,125.984h6.115l-0.587-1.55h-6.126l-8.828-22.813c-0.102-0.318-0.415-0.587-0.834-0.587
	c-0.422,0-0.685,0.269-0.791,0.587l-13.561,34.926c-0.05,0.113-0.108,0.318-0.108,0.437c0,0.469,0.37,0.85,0.841,0.85
	c0.421,0,0.733-0.264,0.84-0.582l4.343-11.273h9.354c0.02,0.002,0.039,0.008,0.058,0.008h7.454l4.291,11.2
	c0.163,0.384,0.419,0.648,0.84,0.648c0.526,0,0.89-0.38,0.89-0.85c0-0.118-0.049-0.323-0.101-0.437L459.065,125.984z
	 M448.804,103.703l7.908,20.728h-15.818L448.804,103.703z"/>
<path fill="#212B3F" d="M459.065,125.984h6.115l-0.587-1.55h-6.126l-8.828-22.813c-0.102-0.318-0.415-0.587-0.834-0.587
	c-0.422,0-0.685,0.269-0.791,0.587l-13.561,34.926c-0.05,0.113-0.108,0.318-0.108,0.437c0,0.469,0.37,0.85,0.841,0.85
	c0.421,0,0.733-0.264,0.84-0.582l4.343-11.273h9.354c0.02,0.002,0.039,0.008,0.058,0.008h7.454l4.291,11.2
	c0.163,0.384,0.419,0.648,0.84,0.648c0.526,0,0.89-0.38,0.89-0.85c0-0.118-0.049-0.323-0.101-0.437L459.065,125.984z
	 M448.804,103.703l7.908,20.728h-15.818L448.804,103.703z"/>
<path fill="#212B3F" d="M459.065,125.984h6.115l-0.587-1.55h-6.126l-8.828-22.813c-0.102-0.318-0.415-0.587-0.834-0.587
	c-0.422,0-0.685,0.269-0.791,0.587l-13.561,34.926c-0.05,0.113-0.108,0.318-0.108,0.437c0,0.469,0.37,0.85,0.841,0.85
	c0.421,0,0.733-0.264,0.84-0.582l4.343-11.273h9.354c0.02,0.002,0.039,0.008,0.058,0.008h7.454l4.291,11.2
	c0.163,0.384,0.419,0.648,0.84,0.648c0.526,0,0.89-0.38,0.89-0.85c0-0.118-0.049-0.323-0.101-0.437L459.065,125.984z
	 M448.804,103.703l7.908,20.728h-15.818L448.804,103.703z"/>
<path fill="#B7DD65" d="M416.97,124.726c-0.137-0.179-0.35-0.295-0.566-0.295h-10.297l0.586,1.541h8.8
	c-2.992,14.529-15.572,24.984-30.246,24.984c-17.042,0-30.904-14.137-30.904-31.514c0-16.313,12.215-29.772,27.807-31.365
	l-0.566-1.46c-16.146,1.859-28.739,15.873-28.739,32.827c0,18.222,14.538,33.033,32.403,33.033c15.695,0,29.11-11.411,31.892-27.13
	C417.174,125.12,417.112,124.892,416.97,124.726z"/>
<path fill="#212B3F" d="M559.372,122.062c-0.149-0.179-0.36-0.274-0.573-0.274h-8.243l0.586,1.521h6.745
	c-1.872,8.175-9.024,14.023-17.346,14.023c-9.829,0-17.814-8.144-17.814-18.167c0-9.431,7.084-17.203,16.113-18.079l-0.565-1.459
	c-9.586,1.142-17.039,9.47-17.039,19.539c0,10.848,8.653,19.687,19.306,19.687c9.338,0,17.34-6.803,18.985-16.168
	C559.563,122.458,559.509,122.228,559.372,122.062z"/>
<path fill="#212B3F" d="M559.372,122.062c-0.149-0.179-0.36-0.274-0.573-0.274h-8.243l0.586,1.521h6.745
	c-1.872,8.175-9.024,14.023-17.346,14.023c-9.829,0-17.814-8.144-17.814-18.167c0-9.431,7.084-17.203,16.113-18.079l-0.565-1.459
	c-9.586,1.142-17.039,9.47-17.039,19.539c0,10.848,8.653,19.687,19.306,19.687c9.338,0,17.34-6.803,18.985-16.168
	C559.563,122.458,559.509,122.228,559.372,122.062z"/>
<path fill="#212B3F" d="M559.372,122.062c-0.149-0.179-0.36-0.274-0.573-0.274h-8.243l0.586,1.521h6.745
	c-1.872,8.175-9.024,14.023-17.346,14.023c-9.829,0-17.814-8.144-17.814-18.167c0-9.431,7.084-17.203,16.113-18.079l-0.565-1.459
	c-9.586,1.142-17.039,9.47-17.039,19.539c0,10.848,8.653,19.687,19.306,19.687c9.338,0,17.34-6.803,18.985-16.168
	C559.563,122.458,559.509,122.228,559.372,122.062z"/>
<path fill="#212B3F" d="M468.622,112.715c0.156-0.162,0.336-0.238,0.55-0.238c0.207,0,0.388,0.076,0.545,0.238
	c0.157,0.157,0.238,0.343,0.238,0.561v4.163c1.391-3.524,4.271-5.286,8.633-5.286c3.416,0,6.059,1.064,7.927,3.206
	c1.866,2.132,2.797,5.33,2.797,9.595c0,4.313-0.931,7.535-2.797,9.668c-1.869,2.133-4.511,3.191-7.927,3.191
	c-1.292,0-2.469-0.168-3.531-0.521c-1.07-0.368-1.893-0.787-2.485-1.292c-0.592-0.488-1.102-0.992-1.522-1.495
	c-0.412-0.486-0.708-0.922-0.888-1.273l-0.207-0.539v14.351c0,0.221-0.081,0.412-0.238,0.562c-0.157,0.17-0.337,0.245-0.545,0.245
	c-0.213,0-0.395-0.075-0.55-0.245c-0.157-0.149-0.239-0.341-0.239-0.562v-33.766C468.383,113.059,468.464,112.872,468.622,112.715z
	 M469.847,124.951c0,3.929,0.789,6.808,2.354,8.673c1.572,1.878,3.696,2.81,6.387,2.81c6.033,0,9.046-3.826,9.046-11.481
	c0-7.605-3.063-11.408-9.204-11.408C472.711,113.544,469.847,117.346,469.847,124.951z"/>
<path fill="#212B3F" d="M468.622,112.715c0.156-0.162,0.336-0.238,0.55-0.238c0.207,0,0.388,0.076,0.545,0.238
	c0.157,0.157,0.238,0.343,0.238,0.561v4.163c1.391-3.524,4.271-5.286,8.633-5.286c3.416,0,6.059,1.064,7.927,3.206
	c1.866,2.132,2.797,5.33,2.797,9.595c0,4.313-0.931,7.535-2.797,9.668c-1.869,2.133-4.511,3.191-7.927,3.191
	c-1.292,0-2.469-0.168-3.531-0.521c-1.07-0.368-1.893-0.787-2.485-1.292c-0.592-0.488-1.102-0.992-1.522-1.495
	c-0.412-0.486-0.708-0.922-0.888-1.273l-0.207-0.539v14.351c0,0.221-0.081,0.412-0.238,0.562c-0.157,0.17-0.337,0.245-0.545,0.245
	c-0.213,0-0.395-0.075-0.55-0.245c-0.157-0.149-0.239-0.341-0.239-0.562v-33.766C468.383,113.059,468.464,112.872,468.622,112.715z
	 M469.847,124.951c0,3.929,0.789,6.808,2.354,8.673c1.572,1.878,3.696,2.81,6.387,2.81c6.033,0,9.046-3.826,9.046-11.481
	c0-7.605-3.063-11.408-9.204-11.408C472.711,113.544,469.847,117.346,469.847,124.951z"/>
<path fill="#212B3F" d="M468.622,112.715c0.156-0.162,0.336-0.238,0.55-0.238c0.207,0,0.388,0.076,0.545,0.238
	c0.157,0.157,0.238,0.343,0.238,0.561v4.163c1.391-3.524,4.271-5.286,8.633-5.286c3.416,0,6.059,1.064,7.927,3.206
	c1.866,2.132,2.797,5.33,2.797,9.595c0,4.313-0.931,7.535-2.797,9.668c-1.869,2.133-4.511,3.191-7.927,3.191
	c-1.292,0-2.469-0.168-3.531-0.521c-1.07-0.368-1.893-0.787-2.485-1.292c-0.592-0.488-1.102-0.992-1.522-1.495
	c-0.412-0.486-0.708-0.922-0.888-1.273l-0.207-0.539v14.351c0,0.221-0.081,0.412-0.238,0.562c-0.157,0.17-0.337,0.245-0.545,0.245
	c-0.213,0-0.395-0.075-0.55-0.245c-0.157-0.149-0.239-0.341-0.239-0.562v-33.766C468.383,113.059,468.464,112.872,468.622,112.715z
	 M469.847,124.951c0,3.929,0.789,6.808,2.354,8.673c1.572,1.878,3.696,2.81,6.387,2.81c6.033,0,9.046-3.826,9.046-11.481
	c0-7.605-3.063-11.408-9.204-11.408C472.711,113.544,469.847,117.346,469.847,124.951z"/>
<path fill="#212B3F" d="M495.248,112.715c0.156-0.162,0.345-0.238,0.551-0.238c0.214,0,0.396,0.076,0.551,0.238
	c0.157,0.157,0.232,0.343,0.232,0.561v4.163c1.397-3.524,4.271-5.286,8.633-5.286c3.424,0,6.065,1.064,7.927,3.206
	c1.873,2.132,2.804,5.33,2.804,9.595c0,4.313-0.931,7.535-2.804,9.668c-1.861,2.133-4.503,3.191-7.927,3.191
	c-1.283,0-2.462-0.168-3.529-0.521c-1.071-0.368-1.888-0.787-2.479-1.292c-0.601-0.488-1.103-0.992-1.522-1.495
	c-0.42-0.486-0.716-0.922-0.89-1.273l-0.212-0.539v14.351c0,0.221-0.076,0.412-0.232,0.562c-0.156,0.17-0.337,0.245-0.551,0.245
	c-0.206,0-0.394-0.075-0.551-0.245c-0.156-0.149-0.231-0.341-0.231-0.562v-33.766C495.018,113.059,495.092,112.872,495.248,112.715z
	 M496.482,124.951c0,3.929,0.782,6.808,2.347,8.673c1.58,1.878,3.702,2.81,6.386,2.81c6.042,0,9.056-3.826,9.056-11.481
	c0-7.605-3.064-11.408-9.205-11.408C499.337,113.544,496.482,117.346,496.482,124.951z"/>
<path fill="#212B3F" d="M495.248,112.715c0.156-0.162,0.345-0.238,0.551-0.238c0.214,0,0.396,0.076,0.551,0.238
	c0.157,0.157,0.232,0.343,0.232,0.561v4.163c1.397-3.524,4.271-5.286,8.633-5.286c3.424,0,6.065,1.064,7.927,3.206
	c1.873,2.132,2.804,5.33,2.804,9.595c0,4.313-0.931,7.535-2.804,9.668c-1.861,2.133-4.503,3.191-7.927,3.191
	c-1.283,0-2.462-0.168-3.529-0.521c-1.071-0.368-1.888-0.787-2.479-1.292c-0.601-0.488-1.103-0.992-1.522-1.495
	c-0.42-0.486-0.716-0.922-0.89-1.273l-0.212-0.539v14.351c0,0.221-0.076,0.412-0.232,0.562c-0.156,0.17-0.337,0.245-0.551,0.245
	c-0.206,0-0.394-0.075-0.551-0.245c-0.156-0.149-0.231-0.341-0.231-0.562v-33.766C495.018,113.059,495.092,112.872,495.248,112.715z
	 M496.482,124.951c0,3.929,0.782,6.808,2.347,8.673c1.58,1.878,3.702,2.81,6.386,2.81c6.042,0,9.056-3.826,9.056-11.481
	c0-7.605-3.064-11.408-9.205-11.408C499.337,113.544,496.482,117.346,496.482,124.951z"/>
<path fill="#212B3F" d="M495.248,112.715c0.156-0.162,0.345-0.238,0.551-0.238c0.214,0,0.396,0.076,0.551,0.238
	c0.157,0.157,0.232,0.343,0.232,0.561v4.163c1.397-3.524,4.271-5.286,8.633-5.286c3.424,0,6.065,1.064,7.927,3.206
	c1.873,2.132,2.804,5.33,2.804,9.595c0,4.313-0.931,7.535-2.804,9.668c-1.861,2.133-4.503,3.191-7.927,3.191
	c-1.283,0-2.462-0.168-3.529-0.521c-1.071-0.368-1.888-0.787-2.479-1.292c-0.601-0.488-1.103-0.992-1.522-1.495
	c-0.42-0.486-0.716-0.922-0.89-1.273l-0.212-0.539v14.351c0,0.221-0.076,0.412-0.232,0.562c-0.156,0.17-0.337,0.245-0.551,0.245
	c-0.206,0-0.394-0.075-0.551-0.245c-0.156-0.149-0.231-0.341-0.231-0.562v-33.766C495.018,113.059,495.092,112.872,495.248,112.715z
	 M496.482,124.951c0,3.929,0.782,6.808,2.347,8.673c1.58,1.878,3.702,2.81,6.386,2.81c6.042,0,9.056-3.826,9.056-11.481
	c0-7.605-3.064-11.408-9.205-11.408C499.337,113.544,496.482,117.346,496.482,124.951z"/>
<path fill="#212B3F" d="M563.97,112.715c0.163-0.162,0.353-0.238,0.552-0.238c0.213,0,0.401,0.076,0.551,0.238
	c0.164,0.157,0.237,0.343,0.237,0.561v5.229c0.594-1.887,1.653-3.408,3.169-4.565c1.515-1.15,3.432-1.73,5.771-1.73
	c0.46,0,0.688,0.228,0.688,0.688c0,0.463-0.229,0.697-0.688,0.697c-2.882,0-5.105,0.998-6.636,2.987
	c-1.532,1.99-2.305,4.525-2.305,7.58v12.59c0,0.218-0.073,0.396-0.237,0.562c-0.149,0.151-0.338,0.244-0.551,0.244
	c-0.199,0-0.389-0.093-0.552-0.244c-0.148-0.167-0.225-0.345-0.225-0.562v-23.475C563.745,113.059,563.821,112.872,563.97,112.715z"
	/>
<path fill="#212B3F" d="M563.97,112.715c0.163-0.162,0.353-0.238,0.552-0.238c0.213,0,0.401,0.076,0.551,0.238
	c0.164,0.157,0.237,0.343,0.237,0.561v5.229c0.594-1.887,1.653-3.408,3.169-4.565c1.515-1.15,3.432-1.73,5.771-1.73
	c0.46,0,0.688,0.228,0.688,0.688c0,0.463-0.229,0.697-0.688,0.697c-2.882,0-5.105,0.998-6.636,2.987
	c-1.532,1.99-2.305,4.525-2.305,7.58v12.59c0,0.218-0.073,0.396-0.237,0.562c-0.149,0.151-0.338,0.244-0.551,0.244
	c-0.199,0-0.389-0.093-0.552-0.244c-0.148-0.167-0.225-0.345-0.225-0.562v-23.475C563.745,113.059,563.821,112.872,563.97,112.715z"
	/>
<path fill="#212B3F" d="M563.97,112.715c0.163-0.162,0.353-0.238,0.552-0.238c0.213,0,0.401,0.076,0.551,0.238
	c0.164,0.157,0.237,0.343,0.237,0.561v5.229c0.594-1.887,1.653-3.408,3.169-4.565c1.515-1.15,3.432-1.73,5.771-1.73
	c0.46,0,0.688,0.228,0.688,0.688c0,0.463-0.229,0.697-0.688,0.697c-2.882,0-5.105,0.998-6.636,2.987
	c-1.532,1.99-2.305,4.525-2.305,7.58v12.59c0,0.218-0.073,0.396-0.237,0.562c-0.149,0.151-0.338,0.244-0.551,0.244
	c-0.199,0-0.389-0.093-0.552-0.244c-0.148-0.167-0.225-0.345-0.225-0.562v-23.475C563.745,113.059,563.821,112.872,563.97,112.715z"
	/>
<path fill="#212B3F" d="M586.923,113.544c-1.925,0-3.407,0.344-4.46,1.041c-1.036,0.69-1.943,1.646-2.717,2.853
	c-0.132,0.244-0.346,0.37-0.624,0.37c-0.493,0-0.74-0.244-0.74-0.746c0-0.14,0.064-0.302,0.164-0.48
	c1.777-2.953,4.573-4.43,8.377-4.43c3.097,0,5.4,0.778,6.899,2.324c1.497,1.545,2.253,3.709,2.253,6.481v15.796
	c0,0.501-0.245,0.738-0.737,0.738c-0.481,0-0.726-0.237-0.726-0.738v-3.155c-1.714,2.785-4.593,4.163-8.643,4.163
	c-2.93,0-5.169-0.638-6.748-1.913c-1.565-1.277-2.354-3.092-2.354-5.44c0-2.352,0.865-4.172,2.592-5.481
	c1.729-1.291,4.089-1.938,7.086-1.938h8.066v-2.453c0-2.248-0.67-3.97-2.018-5.178C591.247,114.149,589.36,113.544,586.923,113.544z
	 M585.969,136.383c2.452,0,4.501-0.669,6.15-1.98c1.66-1.309,2.492-3.173,2.492-5.549v-4.54h-8.066c-2.437,0-4.395,0.521-5.859,1.56
	c-1.465,1.027-2.189,2.538-2.189,4.534c0,1.881,0.626,3.347,1.877,4.391C581.64,135.854,583.5,136.383,585.969,136.383z"/>
<path fill="#212B3F" d="M586.923,113.544c-1.925,0-3.407,0.344-4.46,1.041c-1.036,0.69-1.943,1.646-2.717,2.853
	c-0.132,0.244-0.346,0.37-0.624,0.37c-0.493,0-0.74-0.244-0.74-0.746c0-0.14,0.064-0.302,0.164-0.48
	c1.777-2.953,4.573-4.43,8.377-4.43c3.097,0,5.4,0.778,6.899,2.324c1.497,1.545,2.253,3.709,2.253,6.481v15.796
	c0,0.501-0.245,0.738-0.737,0.738c-0.481,0-0.726-0.237-0.726-0.738v-3.155c-1.714,2.785-4.593,4.163-8.643,4.163
	c-2.93,0-5.169-0.638-6.748-1.913c-1.565-1.277-2.354-3.092-2.354-5.44c0-2.352,0.865-4.172,2.592-5.481
	c1.729-1.291,4.089-1.938,7.086-1.938h8.066v-2.453c0-2.248-0.67-3.97-2.018-5.178C591.247,114.149,589.36,113.544,586.923,113.544z
	 M585.969,136.383c2.452,0,4.501-0.669,6.15-1.98c1.66-1.309,2.492-3.173,2.492-5.549v-4.54h-8.066c-2.437,0-4.395,0.521-5.859,1.56
	c-1.465,1.027-2.189,2.538-2.189,4.534c0,1.881,0.626,3.347,1.877,4.391C581.64,135.854,583.5,136.383,585.969,136.383z"/>
<path fill="#212B3F" d="M586.923,113.544c-1.925,0-3.407,0.344-4.46,1.041c-1.036,0.69-1.943,1.646-2.717,2.853
	c-0.132,0.244-0.346,0.37-0.624,0.37c-0.493,0-0.74-0.244-0.74-0.746c0-0.14,0.064-0.302,0.164-0.48
	c1.777-2.953,4.573-4.43,8.377-4.43c3.097,0,5.4,0.778,6.899,2.324c1.497,1.545,2.253,3.709,2.253,6.481v15.796
	c0,0.501-0.245,0.738-0.737,0.738c-0.481,0-0.726-0.237-0.726-0.738v-3.155c-1.714,2.785-4.593,4.163-8.643,4.163
	c-2.93,0-5.169-0.638-6.748-1.913c-1.565-1.277-2.354-3.092-2.354-5.44c0-2.352,0.865-4.172,2.592-5.481
	c1.729-1.291,4.089-1.938,7.086-1.938h8.066v-2.453c0-2.248-0.67-3.97-2.018-5.178C591.247,114.149,589.36,113.544,586.923,113.544z
	 M585.969,136.383c2.452,0,4.501-0.669,6.15-1.98c1.66-1.309,2.492-3.173,2.492-5.549v-4.54h-8.066c-2.437,0-4.395,0.521-5.859,1.56
	c-1.465,1.027-2.189,2.538-2.189,4.534c0,1.881,0.626,3.347,1.877,4.391C581.64,135.854,583.5,136.383,585.969,136.383z"/>
<path fill="#212B3F" d="M611.98,112.152c1.186,0,2.296,0.184,3.316,0.537c1.036,0.354,1.859,0.781,2.468,1.28
	s1.136,0.986,1.565,1.465c0.441,0.478,0.747,0.898,0.914,1.256l0.262,0.53V99.939c0-0.219,0.076-0.403,0.238-0.564
	c0.149-0.158,0.337-0.242,0.551-0.242c0.201,0,0.389,0.083,0.552,0.242c0.15,0.161,0.226,0.345,0.226,0.564v27.528
	c0,3.344-0.923,5.91-2.768,7.689c-1.844,1.764-4.294,2.652-7.324,2.652c-3.425,0-6.066-1.059-7.927-3.19
	c-1.859-2.135-2.806-5.355-2.806-9.668c0-4.265,0.946-7.463,2.806-9.596C605.914,113.217,608.555,112.152,611.98,112.152z
	 M620.506,119.78c-0.066-0.176-0.148-0.401-0.262-0.689c-0.1-0.285-0.388-0.788-0.865-1.494c-0.46-0.711-0.995-1.342-1.59-1.895
	c-0.593-0.554-1.407-1.049-2.44-1.496c-1.023-0.443-2.15-0.663-3.368-0.663c-6.043,0-9.054,3.802-9.054,11.407
	c0,7.655,3.011,11.481,9.054,11.481c2.581,0,4.647-0.755,6.197-2.249c1.548-1.493,2.328-3.728,2.328-6.717V119.78z"/>
<path fill="#212B3F" d="M611.98,112.152c1.186,0,2.296,0.184,3.316,0.537c1.036,0.354,1.859,0.781,2.468,1.28
	s1.136,0.986,1.565,1.465c0.441,0.478,0.747,0.898,0.914,1.256l0.262,0.53V99.939c0-0.219,0.076-0.403,0.238-0.564
	c0.149-0.158,0.337-0.242,0.551-0.242c0.201,0,0.389,0.083,0.552,0.242c0.15,0.161,0.226,0.345,0.226,0.564v27.528
	c0,3.344-0.923,5.91-2.768,7.689c-1.844,1.764-4.294,2.652-7.324,2.652c-3.425,0-6.066-1.059-7.927-3.19
	c-1.859-2.135-2.806-5.355-2.806-9.668c0-4.265,0.946-7.463,2.806-9.596C605.914,113.217,608.555,112.152,611.98,112.152z
	 M620.506,119.78c-0.066-0.176-0.148-0.401-0.262-0.689c-0.1-0.285-0.388-0.788-0.865-1.494c-0.46-0.711-0.995-1.342-1.59-1.895
	c-0.593-0.554-1.407-1.049-2.44-1.496c-1.023-0.443-2.15-0.663-3.368-0.663c-6.043,0-9.054,3.802-9.054,11.407
	c0,7.655,3.011,11.481,9.054,11.481c2.581,0,4.647-0.755,6.197-2.249c1.548-1.493,2.328-3.728,2.328-6.717V119.78z"/>
<path fill="#212B3F" d="M611.98,112.152c1.186,0,2.296,0.184,3.316,0.537c1.036,0.354,1.859,0.781,2.468,1.28
	s1.136,0.986,1.565,1.465c0.441,0.478,0.747,0.898,0.914,1.256l0.262,0.53V99.939c0-0.219,0.076-0.403,0.238-0.564
	c0.149-0.158,0.337-0.242,0.551-0.242c0.201,0,0.389,0.083,0.552,0.242c0.15,0.161,0.226,0.345,0.226,0.564v27.528
	c0,3.344-0.923,5.91-2.768,7.689c-1.844,1.764-4.294,2.652-7.324,2.652c-3.425,0-6.066-1.059-7.927-3.19
	c-1.859-2.135-2.806-5.355-2.806-9.668c0-4.265,0.946-7.463,2.806-9.596C605.914,113.217,608.555,112.152,611.98,112.152z
	 M620.506,119.78c-0.066-0.176-0.148-0.401-0.262-0.689c-0.1-0.285-0.388-0.788-0.865-1.494c-0.46-0.711-0.995-1.342-1.59-1.895
	c-0.593-0.554-1.407-1.049-2.44-1.496c-1.023-0.443-2.15-0.663-3.368-0.663c-6.043,0-9.054,3.802-9.054,11.407
	c0,7.655,3.011,11.481,9.054,11.481c2.581,0,4.647-0.755,6.197-2.249c1.548-1.493,2.328-3.728,2.328-6.717V119.78z"/>
<path fill="#212B3F" d="M627.568,124.951c0-4.08,0.931-7.237,2.805-9.459c1.86-2.225,4.486-3.34,7.863-3.34
	c2.021,0,3.744,0.352,5.16,1.041c1.414,0.696,2.427,1.62,3.055,2.778c0.638,1.157,1.06,2.232,1.288,3.223
	c0.229,0.998,0.338,2.047,0.338,3.154c0,0.89-0.033,1.546-0.097,1.964c-0.114,0.573-0.494,0.857-1.154,0.857h-17.629
	c0,7.505,3.208,11.265,9.614,11.265c2.831,0,5.283-0.89,7.389-2.67c0.133-0.101,0.279-0.166,0.412-0.166
	c0.46,0,0.677,0.233,0.677,0.704c0,0.169-0.1,0.369-0.314,0.586c-2.057,1.947-4.774,2.923-8.163,2.923
	C631.319,137.811,627.568,133.528,627.568,124.951z M646.564,122.349c0-1.176-0.129-2.25-0.363-3.205
	c-0.246-0.958-0.673-1.887-1.265-2.772c-0.595-0.89-1.458-1.585-2.594-2.082c-1.122-0.502-2.496-0.746-4.106-0.746
	c-2.885,0-5.097,0.898-6.61,2.694c-1.515,1.797-2.33,4.331-2.429,7.605h17.316C646.547,123.122,646.564,122.636,646.564,122.349z"/>
<path fill="#212B3F" d="M627.568,124.951c0-4.08,0.931-7.237,2.805-9.459c1.86-2.225,4.486-3.34,7.863-3.34
	c2.021,0,3.744,0.352,5.16,1.041c1.414,0.696,2.427,1.62,3.055,2.778c0.638,1.157,1.06,2.232,1.288,3.223
	c0.229,0.998,0.338,2.047,0.338,3.154c0,0.89-0.033,1.546-0.097,1.964c-0.114,0.573-0.494,0.857-1.154,0.857h-17.629
	c0,7.505,3.208,11.265,9.614,11.265c2.831,0,5.283-0.89,7.389-2.67c0.133-0.101,0.279-0.166,0.412-0.166
	c0.46,0,0.677,0.233,0.677,0.704c0,0.169-0.1,0.369-0.314,0.586c-2.057,1.947-4.774,2.923-8.163,2.923
	C631.319,137.811,627.568,133.528,627.568,124.951z M646.564,122.349c0-1.176-0.129-2.25-0.363-3.205
	c-0.246-0.958-0.673-1.887-1.265-2.772c-0.595-0.89-1.458-1.585-2.594-2.082c-1.122-0.502-2.496-0.746-4.106-0.746
	c-2.885,0-5.097,0.898-6.61,2.694c-1.515,1.797-2.33,4.331-2.429,7.605h17.316C646.547,123.122,646.564,122.636,646.564,122.349z"/>
<path fill="#212B3F" d="M627.568,124.951c0-4.08,0.931-7.237,2.805-9.459c1.86-2.225,4.486-3.34,7.863-3.34
	c2.021,0,3.744,0.352,5.16,1.041c1.414,0.696,2.427,1.62,3.055,2.778c0.638,1.157,1.06,2.232,1.288,3.223
	c0.229,0.998,0.338,2.047,0.338,3.154c0,0.89-0.033,1.546-0.097,1.964c-0.114,0.573-0.494,0.857-1.154,0.857h-17.629
	c0,7.505,3.208,11.265,9.614,11.265c2.831,0,5.283-0.89,7.389-2.67c0.133-0.101,0.279-0.166,0.412-0.166
	c0.46,0,0.677,0.233,0.677,0.704c0,0.169-0.1,0.369-0.314,0.586c-2.057,1.947-4.774,2.923-8.163,2.923
	C631.319,137.811,627.568,133.528,627.568,124.951z M646.564,122.349c0-1.176-0.129-2.25-0.363-3.205
	c-0.246-0.958-0.673-1.887-1.265-2.772c-0.595-0.89-1.458-1.585-2.594-2.082c-1.122-0.502-2.496-0.746-4.106-0.746
	c-2.885,0-5.097,0.898-6.61,2.694c-1.515,1.797-2.33,4.331-2.429,7.605h17.316C646.547,123.122,646.564,122.636,646.564,122.349z"/>
</svg>
